<svg width="366" height="364" viewBox="0 0 366 364" fill="none" xmlns="http://www.w3.org/2000/svg">
<circle cx="184" cy="182" r="182" fill="white"/>
<path d="M289 185H289.034V204.96L250.704 153H236V231H252.966V179.04L291.296 231H306V137H327V244H49V165H74V231H117.653C126.177 231 132.678 229.103 137.155 225.308C141.719 221.432 144 215.739 144 208.229C144 203.143 142.837 199.307 140.513 196.724C138.274 194.059 135.217 192.162 131.343 191.031C134.27 189.497 136.595 187.357 138.317 184.611C140.039 181.785 140.9 178.273 140.9 174.074C140.9 167.373 138.834 162.205 134.701 158.571C130.654 154.857 124.455 153 116.104 153H49V137H267L289 100V185ZM153 231H186.63C198.836 231 207.929 227.932 213.907 221.795C219.969 215.578 223 205.767 223 192.363C223 178.152 219.928 168.059 213.783 162.084C207.722 156.028 198.67 153 186.63 153H153V231ZM112.358 197.208C117.61 197.208 121.227 198.056 123.207 199.752C125.273 201.448 126.307 204.031 126.307 207.503C126.307 211.782 125.273 214.77 123.207 216.466C121.141 218.161 117.912 219.01 113.521 219.01H91.4355V197.208H112.358ZM184.264 166.565C189.412 166.565 193.563 167.251 196.719 168.624C199.874 169.997 202.2 172.541 203.694 176.255C205.189 179.969 205.936 185.339 205.936 192.363C205.936 199.388 205.106 204.798 203.445 208.593C201.868 212.307 199.459 214.891 196.221 216.345C192.982 217.717 188.997 218.403 184.264 218.403H169.815V166.565H184.264ZM111.583 165.111C116.577 165.111 119.978 165.96 121.786 167.655C123.68 169.351 124.627 171.935 124.627 175.407C124.627 178.556 123.723 181.019 121.915 182.795C120.107 184.491 117.094 185.339 112.875 185.339H91.4355V165.111H111.583ZM48.9883 182.525L0 165H49L48.9883 182.525Z" fill="#093624"/>
</svg>
